<svg xmlns="http://www.w3.org/2000/svg" viewBox="0 0 640 640" role="img" aria-labelledby="title desc">
  <title id="title">LC Transportes</title>
  <desc id="desc">Logo circular da LC Transportes com texto institucional.</desc>
  <defs>
    <linearGradient id="gold" x1="0%" x2="100%" y1="0%" y2="0%">
      <stop offset="0%" stop-color="#bf7d1a"/>
      <stop offset="55%" stop-color="#d8a03e"/>
      <stop offset="100%" stop-color="#efcb67"/>
    </linearGradient>
  </defs>
  <rect width="640" height="640" fill="#dfe7ef"/>
  <circle cx="320" cy="320" r="310" fill="#ffffff" stroke="#0b5aa8" stroke-width="7"/>

  <path d="M119 136h56v243h92c23 0 42 8 59 23-13 0-25 2-37 5-11 4-22 9-32 17H119z" fill="#0b5aa8"/>
  <path d="M320 137c84 0 123 0 183 0v60H349c-38 0-69 31-69 69s31 69 69 69h154v61H320c-70 0-127-57-127-130s57-129 127-129z" fill="url(#gold)"/>
  <path d="M289 290c24 29 58 47 96 47h118" fill="none" stroke="#0b5aa8" stroke-width="4" stroke-dasharray="12 8" stroke-linecap="round"/>
  <path d="M429 396h110l34 44H473c-26 0-49-8-70-23 10-1 18-3 26-7z" fill="url(#gold)"/>

  <text x="320" y="431" text-anchor="middle" fill="#0b5aa8" font-size="74" font-family="Segoe UI, Arial, sans-serif" font-weight="800" letter-spacing="2">TRANSPORTES</text>
  <text x="320" y="489" text-anchor="middle" fill="#0b5aa8" font-size="34" font-family="Segoe UI, Arial, sans-serif" font-weight="500">Coletas &amp; Entregas Urgentes</text>
  <text x="320" y="534" text-anchor="middle" fill="#2d6fab" font-size="30" font-family="Segoe UI, Arial, sans-serif" font-weight="500">Regional e Interestadual</text>
</svg>
